<svg id="visual" viewBox="0 0 900 600" width="900" height="600" xmlns="http://www.w3.org/2000/svg" xmlns:xlink="http://www.w3.org/1999/xlink" version="1.1"><rect x="0" y="0" width="900" height="600" fill="#CDC7E5"></rect><path d="M0 507L21.5 482.7C43 458.3 86 409.7 128.8 390.2C171.7 370.7 214.3 380.3 257.2 403C300 425.7 343 461.3 385.8 453.2C428.7 445 471.3 393 514.2 377.2C557 361.3 600 381.7 642.8 407.3C685.7 433 728.3 464 771.2 465.5C814 467 857 439 878.5 425L900 411L900 601L878.5 601C857 601 814 601 771.2 601C728.3 601 685.7 601 642.8 601C600 601 557 601 514.2 601C471.3 601 428.7 601 385.8 601C343 601 300 601 257.2 601C214.3 601 171.7 601 128.8 601C86 601 43 601 21.5 601L0 601Z" fill="#613DC1" stroke-linecap="round" stroke-linejoin="miter"></path></svg>